<?xml version="1.0" encoding="UTF-8"?>
<!-- Generator: visioncortex VTracer 0.6.3 -->
<svg version="1.1" xmlns="http://www.w3.org/2000/svg" width="500" height="500">
<path d="M0 0 C0.08 5.51 0.13 11.02 0.16 16.53 C0.18 18.39 0.2 20.26 0.23 22.12 C0.56 46.43 -2.18 71.81 -19.62 90.31 C-33.26 102.98 -50.8 110.94 -68.77 115.21 C-74.91 116.3 -74.91 116.3 -79.39 120.1 C-79.82 121.35 -79.82 121.35 -80.25 122.62 C-80.56 123.52 -80.87 124.42 -81.19 125.35 C-81.46 126.23 -81.73 127.1 -82 128 C-82.22 128.69 -82.43 129.38 -82.65 130.09 C-85.11 138.89 -85.14 148.05 -85.06 157.12 C-85.04 160.38 -85.02 163.64 -85 167 C-78.07 165.02 -71.14 163.04 -64 161 C-64.55 168.15 -65.44 175 -67 182 C-71.43 180.48 -75.03 178.07 -78.81 175.38 C-79.71 174.74 -79.71 174.74 -80.62 174.1 C-82.09 173.07 -83.54 172.04 -85 171 C-84.67 171.99 -84.34 172.98 -84 174 C-83.79 175.62 -83.61 177.25 -83.46 178.89 C-83.33 180.29 -83.33 180.29 -83.2 181.73 C-83.07 183.19 -83.07 183.19 -82.94 184.69 C-82.85 185.68 -82.76 186.66 -82.66 187.68 C-82.44 190.12 -82.22 192.56 -82 195 C-81.04 194.77 -81.04 194.77 -80.06 194.54 C-77.11 193.85 -74.15 193.17 -71.19 192.5 C-70.18 192.26 -69.18 192.02 -68.14 191.78 C-58.9 189.7 -50.31 189.39 -40.94 190.88 C-39.85 191.04 -38.77 191.2 -37.65 191.37 C-35 192 -35 192 -33 194 C-34.14 194.27 -35.27 194.53 -36.44 194.81 C-41.75 196.05 -47.07 197.31 -52.38 198.56 C-53.81 198.9 -53.81 198.9 -55.27 199.25 C-67.98 202.25 -80.64 205.35 -93.18 209.02 C-102.09 211.55 -109.43 211.14 -118.5 209.5 C-119.32 209.36 -120.14 209.21 -120.99 209.07 C-123 208.72 -125 208.36 -127 208 C-126.5 207.01 -126.5 207.01 -126 206 C-123.35 205.13 -123.35 205.13 -119.85 204.27 C-118.6 203.96 -117.35 203.65 -116.06 203.34 C-115.4 203.18 -114.75 203.02 -114.07 202.86 C-112.07 202.38 -110.08 201.89 -108.08 201.39 C-98.32 199 -98.32 199 -96 199 C-96.16 197.9 -96.32 196.81 -96.49 195.67 C-97.13 190.52 -97.16 185.4 -97.17 180.21 C-97.17 179.19 -97.17 178.17 -97.18 177.12 C-97.18 174.96 -97.19 172.81 -97.19 170.66 C-97.19 167.41 -97.21 164.15 -97.22 160.9 C-97.33 122.6 -83.33 94.37 -57 67 C-69.27 75.42 -78.84 86.57 -87.76 98.36 C-89.68 100.89 -91.65 103.39 -93.62 105.88 C-94.26 106.68 -94.89 107.48 -95.54 108.3 C-96.02 108.86 -96.5 109.42 -97 110 C-97.33 110 -97.66 110 -98 110 C-97.36 87.11 -93.28 62.03 -77.62 44.31 C-76.76 43.55 -75.89 42.79 -75 42 C-74.41 41.44 -73.83 40.87 -73.22 40.29 C-67.12 34.56 -60.54 30.49 -53.25 26.44 C-52.03 25.75 -50.82 25.07 -49.6 24.38 C-40.55 19.31 -31.4 14.45 -22.19 9.69 C-21.57 9.37 -20.96 9.05 -20.32 8.72 C-3.42 0 -3.42 0 0 0 Z " fill="#75AD4D" transform="translate(320,10)"/>
<path d="M0 0 C0.54 0.22 1.09 0.44 1.65 0.67 C14.88 5.97 28.15 10.29 41.88 14.06 C74.3 23.03 74.3 23.03 86 34 C86.67 34.57 87.34 35.14 88.03 35.72 C100.17 46.7 106.98 64.25 107.96 80.38 C107.97 80.91 107.99 81.45 108 82 C102.71 77.67 97.91 72.98 93.18 68.05 C90.8 65.62 89.27 64.09 86 63 C86.43 63.4 86.86 63.81 87.31 64.23 C91.93 68.69 95.72 73.41 99.38 78.69 C99.91 79.43 100.44 80.18 100.99 80.95 C105.21 86.97 105.21 86.97 106 91 C96.92 99.41 89.89 102.41 77.47 102.27 C61.6 101.02 49.27 91.04 38.37 80.33 C37.27 79.26 36.15 78.23 35.01 77.2 C13.67 57.48 2.3 28.29 0 0 Z M81 59 C81.33 59.66 81.66 60.32 82 61 C82.66 60.67 83.32 60.34 84 60 C83.01 59.67 82.02 59.34 81 59 Z " fill="#9ACA48" transform="translate(112,60)"/>
<path d="M0 0 C12.44 -0.4 22.59 3.05 33.34 9.15 C34 9.53 34.67 9.91 35.36 10.3 C43.3 15.38 48.58 23.7 52.34 32.15 C47.95 33.71 43.63 34.79 39.07 35.69 C38.02 35.9 38.02 35.9 36.94 36.12 C34.63 36.58 32.32 37.03 30.01 37.49 C28.38 37.81 26.76 38.14 25.13 38.46 C20.84 39.31 16.55 40.16 12.26 41.01 C5.45 42.36 -1.37 43.71 -8.18 45.07 C-10.53 45.53 -12.88 46 -15.23 46.46 C-16.73 46.76 -18.22 47.06 -19.72 47.35 C-20.8 47.57 -20.8 47.57 -21.91 47.79 C-25.9 48.58 -29.89 49.41 -33.87 50.27 C-34.74 50.45 -35.6 50.64 -36.49 50.83 C-38.15 51.19 -39.81 51.55 -41.48 51.91 C-44.98 52.67 -48.06 53.15 -51.66 53.15 C-51.39 40.71 -47.19 30 -39.66 20.15 C-39.23 19.54 -38.79 18.93 -38.34 18.29 C-30.71 8.39 -17.99 3.05 -6.1 0.34 C-4.07 0.23 -2.03 0.12 0 0 Z " fill="#FBAE3E" transform="translate(310.6640625,138.84765625)"/>
<path d="M0 0 C3.63 0 7.26 0 11 0 C11 10.89 11 21.78 11 33 C15.29 33 19.58 33 24 33 C24.33 32.07 24.66 31.14 24.99 30.19 C26.21 26.75 27.43 23.31 28.64 19.87 C29.17 18.38 29.7 16.89 30.22 15.4 C30.98 13.26 31.74 11.12 32.5 8.98 C32.73 8.31 32.97 7.64 33.21 6.95 C34.89 2.23 34.89 2.23 36 0 C40.29 0 44.58 0 49 0 C50.68 4.71 52.35 9.43 54.02 14.14 C54.58 15.74 55.15 17.34 55.72 18.95 C56.54 21.26 57.36 23.57 58.18 25.88 C58.43 26.59 58.68 27.29 58.94 28.02 C60.46 32.31 61.79 36.61 63 41 C59.04 41 55.08 41 51 41 C50.34 39.35 49.68 37.7 49 36 C42.07 35.5 42.07 35.5 35 35 C34.67 36.98 34.34 38.96 34 41 C22.78 41 11.56 41 0 41 C0 27.47 0 13.94 0 0 Z M42 15 C41.49 16.27 41 17.54 40.5 18.81 C40.22 19.52 39.94 20.23 39.66 20.96 C38.85 23.12 38.85 23.12 39 26 C41.31 26 43.62 26 46 26 C45.01 22.37 44.02 18.74 43 15 C42.67 15 42.34 15 42 15 Z " fill="#FFFFFF" transform="translate(228,331)"/>
<path d="M0 0 C1.01 0.19 2.03 0.38 3.07 0.58 C5.55 1.05 8.02 1.52 10.5 2 C7.46 5.27 3.88 6.96 -0.06 8.94 C-6.56 12.28 -12.74 15.94 -18.81 20 C-19.57 20.5 -20.33 21.01 -21.11 21.53 C-24.49 23.8 -27.71 26.1 -30.74 28.84 C-34.93 32.53 -37.68 34.87 -43.37 35.28 C-51.94 34.71 -59.85 31.8 -67.5 28 C-66.17 24 -63.64 22.76 -60.25 20.56 C-59.27 19.92 -59.27 19.92 -58.27 19.26 C-52.53 15.56 -46.67 12.09 -40.75 8.69 C-39.9 8.2 -39.05 7.71 -38.17 7.2 C-24.2 -0.73 -15.76 -3.06 0 0 Z " fill="#2C9EC7" transform="translate(229.5,265)"/>
<path d="M0 0 C3.63 0 7.26 0 11 0 C13.74 3.08 15.22 5.18 17 8.75 C17.89 10.39 18.79 12.03 19.69 13.67 C20.06 14.41 20.44 15.14 20.82 15.89 C22.16 18.41 22.16 18.41 25 22 C25.33 14.74 25.66 7.48 26 0 C29.63 0 33.26 0 37 0 C37 13.53 37 27.06 37 41 C33.04 41 29.08 41 25 41 C22.14 38.08 20.75 36.29 18.94 32.81 C18.49 32.04 18.05 31.27 17.59 30.48 C16.76 29.04 15.95 27.59 15.16 26.13 C13.84 23.71 12.42 21.36 11 19 C10.67 26.26 10.34 33.52 10 41 C6.7 41 3.4 41 0 41 C0 27.47 0 13.94 0 0 Z " fill="#FFFFFF" transform="translate(90,331)"/>
<path d="M0 0 C5.33 2.33 8.75 6.37 11.58 11.38 C13.51 17.26 13.57 23.96 11.02 29.63 C8.18 34.6 4.13 37.87 -0.73 40.76 C-7.64 42.36 -13.98 41.95 -20.37 38.79 C-24.8 35.74 -27.73 31.44 -29.42 26.38 C-30.11 19.12 -30.33 12.98 -25.85 6.96 C-18.73 -0.91 -10.26 -2.62 0 0 Z M-17.42 13.38 C-19.14 16.83 -18.78 20.6 -18.42 24.38 C-17.18 27.28 -16.15 28.79 -13.73 30.76 C-10.14 31.73 -6.98 31.36 -3.42 30.38 C-0.66 28.69 0.29 27.44 1.14 24.33 C1.98 19.17 1.61 15.82 -1.42 11.38 C-7.31 7.46 -12.64 8.47 -17.42 13.38 Z " fill="#FFFFFF" transform="translate(211.41796875,331.6171875)"/>
<path d="M0 0 C23.44 0 23.44 0 29.38 5 C32.42 8.75 32.4 12.33 32 17 C30.25 20.38 30.25 20.38 28 23 C25.86 23.66 25.86 23.66 24 24 C26.83 29.77 29.74 35.45 33 41 C28.44 41.81 24.52 42.14 20 41 C16.4 37.06 14.2 32.83 12 28 C11.67 32.29 11.34 36.58 11 41 C7.37 41 3.74 41 0 41 C0 27.47 0 13.94 0 0 Z M11 9 C11 11.64 11 14.28 11 17 C15.01 17.18 15.01 17.18 19 17 C19.66 16.34 20.32 15.68 21 15 C20.71 11.69 20.71 11.69 19 9 C16.33 8.86 13.68 8.96 11 9 Z " fill="#FFFFFF" transform="translate(293,331)"/>
<path d="M0 0 C2.33 2.15 3.8 4.2 5.26 7.01 C5.66 7.77 6.05 8.53 6.46 9.31 C6.87 10.09 7.27 10.88 7.69 11.69 C8.1 12.48 8.52 13.28 8.95 14.1 C9.97 16.07 10.99 18.03 12 20 C15.22 17.53 18.01 15.04 20.62 11.94 C25.02 6.75 25.02 6.75 27 5 C27.66 5 28.32 5 29 5 C29.5 8.25 30 11.5 30.5 14.75 C30.64 15.67 30.79 16.59 30.93 17.54 C31.07 18.43 31.2 19.32 31.34 20.23 C31.53 21.46 31.53 21.46 31.72 22.71 C32 25 32 25 32 29 C30.33 28.57 28.67 28.13 27 27.69 C26.07 27.44 25.14 27.2 24.19 26.95 C21.74 26.22 19.53 25.41 17.18 24.45 C12.84 22.79 8.74 22.37 4.12 22.19 C3.33 22.15 2.53 22.12 1.72 22.08 C-4.16 21.9 -9.37 22.18 -15 24 C-15.9 24.28 -15.9 24.28 -16.82 24.56 C-26.25 27.51 -32.99 30.85 -40 38 C-43.64 41 -43.64 41 -46 41 C-46.84 37.92 -47.67 34.83 -48.5 31.75 C-48.74 30.88 -48.98 30 -49.22 29.11 C-49.45 28.26 -49.67 27.42 -49.91 26.55 C-50.12 25.77 -50.33 25 -50.54 24.2 C-51 22 -51 22 -51 18 C-44.84 19.92 -39.11 22.24 -33.29 25.01 C-31.11 26.13 -31.11 26.13 -29 26 C-28.01 15.61 -28.01 15.61 -27 5 C-24 5 -24 5 -22.37 6.29 C-21.8 6.87 -21.23 7.46 -20.64 8.06 C-20.02 8.69 -19.4 9.33 -18.76 9.98 C-18.12 10.64 -17.47 11.31 -16.81 12 C-16.16 12.67 -15.5 13.34 -14.83 14.02 C-13.21 15.68 -11.6 17.33 -10 19 C-8.03 17.03 -7.37 15.84 -6.31 13.34 C-6 12.63 -5.7 11.92 -5.38 11.19 C-5.07 10.44 -4.76 9.7 -4.44 8.94 C-1.12 1.12 -1.12 1.12 0 0 Z " fill="#FBAE3E" transform="translate(313,112)"/>
<path d="M0 0 C1.01 0.11 2.03 0.23 3.07 0.35 C9.95 1.37 16.79 2.59 23.62 3.88 C21.34 6.39 19.05 7.87 16.05 9.44 C15.14 9.92 14.23 10.4 13.3 10.9 C12.33 11.41 11.37 11.91 10.38 12.44 C3.45 16.15 -3.35 19.93 -9.88 24.31 C-10.45 24.7 -11.03 25.09 -11.63 25.49 C-13.83 27 -15.97 28.49 -17.9 30.34 C-19.41 31.79 -19.41 31.79 -22.38 33.88 C-27.44 33.16 -31.86 30.02 -36.19 27.38 C-36.87 26.97 -37.55 26.57 -38.25 26.15 C-43.25 23.13 -43.25 23.13 -44.38 20.88 C-36.92 16.09 -29.34 11.69 -21.5 7.56 C-20.7 7.14 -19.91 6.72 -19.09 6.29 C-16.86 5.13 -14.62 3.99 -12.38 2.88 C-11.42 2.4 -11.42 2.4 -10.44 1.91 C-6.74 0.19 -4.05 -0.46 0 0 Z " fill="#2C9EC7" transform="translate(180.375,257.125)"/>
<path d="M0 0 C3.63 0 7.26 0 11 0 C11.33 4.95 11.66 9.9 12 15 C12.63 13.92 13.26 12.83 13.91 11.72 C20.92 0.54 20.92 0.54 26.85 -1 C30.34 -0.94 33.57 -0.68 37 0 C35.63 2.97 34.04 5.37 31.96 7.89 C31.38 8.6 30.8 9.31 30.2 10.04 C29.6 10.77 29 11.5 28.38 12.25 C27.76 13 27.15 13.74 26.52 14.51 C25.02 16.34 23.51 18.17 22 20 C23.37 22.97 24.95 25.34 27.04 27.86 C27.62 28.56 28.2 29.26 28.8 29.99 C29.4 30.72 30 31.44 30.62 32.19 C31.83 33.64 33.03 35.09 34.23 36.54 C34.76 37.18 35.29 37.82 35.84 38.48 C37 40 37 40 37 41 C32.17 41.68 27.81 41.93 23 41 C19.15 37.85 16.61 34.21 14 30 C13.34 29.01 12.68 28.02 12 27 C11.67 31.62 11.34 36.24 11 41 C7.37 41 3.74 41 0 41 C0 27.47 0 13.94 0 0 Z " fill="#FFFFFF" transform="translate(453,331)"/>
<path d="M0 0 C1.06 0.14 1.06 0.14 2.14 0.28 C7.6 1.02 13 1.97 18.38 3.19 C15.82 5.74 13.63 6.25 10.2 7.37 C8.9 7.8 7.6 8.23 6.3 8.67 C4.16 9.37 2.03 10.07 -0.1 10.77 C-8.02 13.39 -15.76 16.1 -23.29 19.72 C-39.52 27.46 -50.86 29.57 -68.47 24.97 C-70.62 24.19 -70.62 24.19 -72.62 22.19 C-57.68 15.75 -42.68 10.01 -27.19 5.06 C-26.44 4.82 -25.69 4.58 -24.92 4.34 C-7.88 -1.09 -7.88 -1.09 0 0 Z " fill="#2C9EC7" transform="translate(291.625,236.8125)"/>
<path d="M0 0 C1.22 0.21 1.22 0.21 2.46 0.43 C4.44 0.78 6.41 1.14 8.38 1.5 C8.38 2.16 8.38 2.82 8.38 3.5 C7.43 3.81 6.48 4.11 5.5 4.43 C1.84 5.61 -1.81 6.8 -5.47 8 C-7.12 8.54 -8.77 9.08 -10.42 9.62 C-18.81 12.34 -27.07 15.09 -35.04 18.89 C-52.27 27.09 -64.17 27.17 -82.62 22.5 C-82.62 21.84 -82.62 21.18 -82.62 20.5 C-67.76 14.65 -52.83 9.06 -37.66 4.05 C-36.19 3.56 -34.72 3.07 -33.26 2.57 C-21.51 -1.39 -12.23 -2.26 0 0 Z " fill="#2C9EC7" transform="translate(266.625,232.5)"/>
<path d="M0 0 C3.63 0 7.26 0 11 0 C11.01 0.83 11.03 1.66 11.04 2.52 C11.11 5.61 11.18 8.71 11.26 11.8 C11.31 13.79 11.35 15.79 11.38 17.78 C11.42 19.04 11.45 20.29 11.49 21.58 C11.51 22.74 11.54 23.9 11.57 25.09 C11.78 27.98 11.78 27.98 13.34 29.91 C15.1 31.29 15.1 31.29 18.06 30.88 C21.29 30.25 21.29 30.25 23 27 C23.37 24.09 23.37 24.09 23.41 20.8 C23.45 19.59 23.49 18.38 23.53 17.14 C23.56 15.88 23.59 14.61 23.62 13.31 C23.66 12.04 23.7 10.76 23.74 9.45 C23.84 6.3 23.92 3.15 24 0 C27.63 0 31.26 0 35 0 C35.08 4.15 35.14 8.29 35.19 12.44 C35.21 13.6 35.24 14.77 35.26 15.97 C35.33 23.62 35.2 30.9 30.32 37.16 C29.74 37.6 29.16 38.04 28.56 38.5 C27.99 38.96 27.41 39.43 26.82 39.91 C22.6 42.45 17.81 42.49 13 42 C7.13 40.21 4.45 37.87 1 33 C-0.16 29.52 -0.11 26.81 -0.1 23.14 C-0.1 22.48 -0.09 21.82 -0.09 21.14 C-0.09 19.03 -0.08 16.92 -0.06 14.81 C-0.06 13.38 -0.05 11.95 -0.05 10.52 C-0.04 7.01 -0.02 3.51 0 0 Z " fill="#FFFFFF" transform="translate(49,331)"/>
<path d="M0 0 C-2.7 2.7 -5.8 3.41 -9.37 4.54 C-10.9 5.04 -12.43 5.54 -13.96 6.04 C-14.77 6.3 -15.57 6.56 -16.4 6.82 C-38.88 13.96 -38.88 13.96 -60.53 23.26 C-63.99 24.3 -67.07 23.79 -70.56 23.25 C-71.26 23.15 -71.96 23.05 -72.68 22.95 C-78.8 22.08 -84.91 21.08 -91 20 C-87.02 12.04 -60.4 6.73 -51.66 3.76 C-49.3 2.98 -46.93 2.2 -44.56 1.44 C-43.04 0.95 -41.53 0.44 -40.02 -0.08 C-25.73 -4.94 -14.5 -3.77 0 0 Z " fill="#2C9EC7" transform="translate(240,229)"/>
<path d="M0 0 C4.44 2.67 8.67 6.04 10.11 11.21 C10.3 12.13 10.3 12.13 10.51 13.06 C8.4 13.14 6.3 13.2 4.2 13.25 C2.44 13.3 2.44 13.3 0.64 13.35 C-2.86 13.02 -3.28 12.56 -5.49 10.06 C-7.44 9.66 -7.44 9.66 -9.49 9.81 C-10.51 9.83 -10.51 9.83 -11.55 9.86 C-13.71 10.01 -13.71 10.01 -16.49 11.06 C-18.28 15.11 -19.04 18.65 -18.49 23.06 C-17.03 26.28 -16 28.48 -12.59 29.8 C-10.33 30.21 -8.75 30.49 -6.49 30.06 C-5.89 29.4 -5.29 28.74 -4.66 28.07 C-2.49 26.06 -2.49 26.06 0.74 25.67 C1.9 25.71 3.06 25.76 4.26 25.81 C5.43 25.84 6.6 25.88 7.8 25.92 C8.7 25.96 9.59 26.01 10.51 26.06 C9.76 30.81 8.03 33.79 4.51 37.06 C-1.94 40.88 -8.13 42.08 -15.54 40.67 C-21.51 38.86 -25.01 35.11 -28.49 30.06 C-31.56 23.65 -31.22 17.5 -28.99 10.93 C-26.74 5.7 -23.42 2.8 -18.49 0.06 C-12.75 -1.86 -5.71 -2.16 0 0 Z " fill="#FFFFFF" transform="translate(438.4921875,331.94140625)"/>
<path d="M0 0 C3 2.41 4.04 3.6 4.88 7.31 C4.88 8.63 4.88 9.95 4.88 11.31 C0.91 11.31 -3.05 11.31 -7.12 11.31 C-7.45 10.32 -7.78 9.33 -8.12 8.31 C-9.12 7.98 -10.1 7.65 -11.12 7.31 C-12.12 7.81 -12.12 7.81 -13.12 8.31 C-13.12 9.63 -13.12 10.95 -13.12 12.31 C-12.08 12.7 -11.03 13.09 -9.95 13.48 C-8.57 14.01 -7.19 14.54 -5.81 15.06 C-5.12 15.32 -4.43 15.57 -3.72 15.83 C0.21 17.35 2.85 18.53 4.88 22.31 C5.91 26.31 6.13 28.58 4.75 32.5 C2.41 36.01 0.01 38.43 -3.94 40.06 C-11.64 40.94 -17.07 40.3 -23.5 35.56 C-25.67 32.56 -25.85 29.95 -26.12 26.31 C-22.16 26.31 -18.21 26.31 -14.12 26.31 C-13.47 27.63 -12.81 28.95 -12.12 30.31 C-10.47 30.31 -8.82 30.31 -7.12 30.31 C-7.13 27.88 -7.13 27.88 -8.12 25.31 C-10.97 23.75 -10.97 23.75 -14.44 22.75 C-19.01 21.27 -22.08 20.12 -25.12 16.31 C-26.29 12.19 -26.25 9.77 -25.12 5.62 C-19.94 -2.96 -8.75 -4.49 0 0 Z " fill="#FBAE3E" transform="translate(173.125,332.6875)"/>
<path d="M0 0 C3 2.41 4.04 3.6 4.88 7.31 C4.88 8.63 4.88 9.95 4.88 11.31 C0.91 11.31 -3.05 11.31 -7.12 11.31 C-7.45 10.32 -7.79 9.33 -8.12 8.31 C-9.11 7.98 -10.11 7.65 -11.12 7.31 C-12.12 7.81 -12.12 7.81 -13.12 8.31 C-13.12 9.63 -13.12 10.95 -13.12 12.31 C-12.08 12.7 -11.03 13.09 -9.95 13.48 C-8.57 14.01 -7.19 14.54 -5.81 15.06 C-5.12 15.32 -4.43 15.57 -3.72 15.83 C0.21 17.35 2.85 18.53 4.88 22.31 C5.91 26.31 6.13 28.58 4.75 32.5 C2.41 36.01 0.01 38.43 -3.94 40.06 C-11.64 40.94 -17.07 40.3 -23.5 35.56 C-25.67 32.56 -25.85 29.95 -26.12 26.31 C-22.16 26.31 -18.2 26.31 -14.12 26.31 C-13.46 27.63 -12.8 28.95 -12.12 30.31 C-10.48 30.31 -8.82 30.31 -7.12 30.31 C-7.13 27.88 -7.13 27.88 -8.12 25.31 C-10.97 23.75 -10.97 23.75 -14.44 22.75 C-19.01 21.27 -22.08 20.12 -25.12 16.31 C-26.29 12.19 -26.25 9.77 -25.12 5.62 C-19.94 -2.96 -8.75 -4.49 0 0 Z " fill="#9ACA48" transform="translate(38.125,332.6875)"/>
<path d="M0 0 C8.58 0 17.16 0 26 0 C26 2.97 26 5.94 26 9 C21.05 9 16.1 9 11 9 C11 11.31 11 13.62 11 16 C15.29 16 19.58 16 24 16 C24 18.97 24 21.94 24 25 C19.71 25 15.42 25 11 25 C11 27.64 11 30.28 11 33 C15.95 33 20.9 33 26 33 C26 35.64 26 38.28 26 41 C17.42 41 8.84 41 0 41 C0 27.47 0 13.94 0 0 Z " fill="#FFFFFF" transform="translate(379,331)"/>
<path d="M0 0 C0 0.66 0 1.32 0 2 C-0.93 2.23 -0.93 2.23 -1.88 2.47 C-8.4 4.09 -14.93 5.71 -21.45 7.33 C-23.87 7.94 -26.3 8.54 -28.73 9.14 C-32.24 10.02 -35.75 10.89 -39.26 11.77 C-40.39 12.05 -41.52 12.33 -42.69 12.62 C-48.55 14.09 -54.34 15.66 -60.12 17.42 C-68.66 19.91 -75.93 19.08 -84.56 17.5 C-85.79 17.29 -85.79 17.29 -87.04 17.07 C-89.03 16.72 -91.01 16.36 -93 16 C-93 15.34 -93 14.68 -93 14 C-85.85 12.21 -78.71 10.42 -71.56 8.63 C-68.24 7.8 -64.92 6.96 -61.6 6.13 C-57.78 5.17 -53.95 4.22 -50.13 3.26 C-48.36 2.81 -48.36 2.81 -46.56 2.36 C-30.44 -1.67 -16.47 -3.49 0 0 Z " fill="#2C9EC7" transform="translate(354,213)"/>
<path d="M0 0 C1.11 0.2 1.11 0.2 2.25 0.41 C2.99 0.55 3.73 0.7 4.5 0.84 C5.27 0.99 6.05 1.13 6.85 1.28 C8.73 1.63 10.62 1.98 12.5 2.34 C9.81 5.04 6.9 5.4 3.3 6.23 C2.57 6.4 1.83 6.58 1.08 6.76 C-1.34 7.34 -3.77 7.9 -6.19 8.47 C-9.58 9.26 -12.97 10.06 -16.36 10.87 C-17.21 11.07 -18.07 11.27 -18.95 11.48 C-24.38 12.79 -29.75 14.24 -35.11 15.82 C-50.24 20.24 -63.05 22.95 -78.5 18.34 C-79.49 17.68 -80.48 17.02 -81.5 16.34 C-67.38 12.15 -53.21 8.47 -38.85 5.19 C-35.64 4.46 -32.44 3.71 -29.24 2.96 C-27.17 2.49 -25.11 2.01 -23.04 1.54 C-22.1 1.32 -21.16 1.1 -20.19 0.87 C-13.31 -0.68 -7 -1.31 0 0 Z " fill="#2C9EC7" transform="translate(308.5,205.65625)"/>
<path d="M0 0 C10.89 0 21.78 0 33 0 C33 2.97 33 5.94 33 9 C29.37 9 25.74 9 22 9 C22 19.56 22 30.12 22 41 C18.37 41 14.74 41 11 41 C11 30.44 11 19.88 11 9 C7.37 9 3.74 9 0 9 C0 6.03 0 3.06 0 0 Z " fill="#0CC0DF" transform="translate(343,331)"/>
<path d="M0 0 C0.99 0.99 0.99 0.99 2 2 C-6.47 3.84 -14.93 5.66 -23.4 7.48 C-27.33 8.32 -31.27 9.17 -35.2 10.02 C-39 10.84 -42.8 11.66 -46.6 12.47 C-48.04 12.78 -49.49 13.09 -50.93 13.41 C-67.68 17.06 -67.68 17.06 -76.28 15.34 C-77.33 15.14 -77.33 15.14 -78.39 14.93 C-79.43 14.72 -79.43 14.72 -80.5 14.5 C-81.59 14.29 -81.59 14.29 -82.7 14.07 C-84.47 13.72 -86.24 13.36 -88 13 C-85.62 10.62 -84.36 10.45 -81.11 9.76 C-80.08 9.54 -79.06 9.32 -78 9.1 C-76.88 8.87 -75.76 8.64 -74.61 8.4 C-73.45 8.16 -72.29 7.91 -71.09 7.67 C-67.31 6.89 -63.53 6.13 -59.75 5.38 C-58.48 5.12 -57.2 4.87 -55.89 4.6 C-16.54 -3.17 -16.54 -3.17 0 0 Z " fill="#2C9EC7" transform="translate(367,185)"/>
<path d="M0 0 C-0.33 1.98 -0.66 3.96 -1 6 C-6.12 7.85 -11.29 9.03 -16.61 10.16 C-17.53 10.36 -18.45 10.56 -19.39 10.76 C-21.33 11.17 -23.28 11.59 -25.22 12 C-28.16 12.62 -31.1 13.26 -34.04 13.9 C-35.94 14.3 -37.83 14.7 -39.73 15.1 C-40.6 15.29 -41.46 15.48 -42.35 15.68 C-50.76 17.42 -59.09 17.59 -67.56 16.12 C-68.55 15.96 -69.55 15.8 -70.57 15.63 C-73 15 -73 15 -75 13 C-64.82 10.84 -54.63 8.69 -44.44 6.56 C-40.61 5.76 -36.77 4.95 -32.94 4.13 C-29.59 3.41 -26.23 2.7 -22.88 2 C-21.93 1.79 -20.99 1.59 -20.02 1.37 C-13.29 -0.02 -6.86 -0.21 0 0 Z " fill="#2C9EC7" transform="translate(387,189)"/>
<path d="M0 0 C-8.74 15.52 -8.74 15.52 -13 20 C-13.66 20 -14.32 20 -15 20 C-16.51 17.38 -18 14.75 -19.5 12.12 C-20.14 11.01 -20.14 11.01 -20.8 9.86 C-21.21 9.15 -21.61 8.43 -22.03 7.7 C-22.41 7.04 -22.79 6.38 -23.17 5.7 C-24 4 -24 4 -24 2 C-15.95 0.7 -8.16 -0.34 0 0 Z " fill="#FBAE3E" transform="translate(385,153)"/>
<path d="M0 0 C3.06 0.14 6.13 0.29 9.19 0.44 C10.05 0.48 10.92 0.52 11.81 0.56 C15.96 0.76 19.95 1 24 2 C22.69 6.38 21 10.01 18.56 13.88 C17.97 14.84 17.37 15.81 16.75 16.8 C16.18 17.53 15.6 18.25 15 19 C14.01 19 13.02 19 12 19 C10.56 17.47 10.56 17.47 9.08 15.35 C8.55 14.59 8.02 13.84 7.47 13.05 C6.92 12.25 6.38 11.45 5.81 10.62 C4.97 9.43 4.97 9.43 4.12 8.22 C0 2.28 0 2.28 0 0 Z " fill="#FBAE3E" transform="translate(243,151)"/>
<path d="M0 0 C-0.78 3.46 -1.58 6.92 -2.38 10.38 C-2.71 11.85 -2.71 11.85 -3.05 13.36 C-3.27 14.3 -3.49 15.24 -3.71 16.21 C-3.91 17.08 -4.11 17.95 -4.31 18.85 C-5 21 -5 21 -7 23 C-9.34 21.07 -11.67 19.13 -14 17.19 C-14.67 16.64 -15.34 16.09 -16.02 15.53 C-16.66 15 -17.29 14.47 -17.94 13.92 C-18.52 13.43 -19.11 12.94 -19.71 12.44 C-21 11 -21 11 -21 8 C-18.07 6.46 -15.13 4.95 -12.19 3.44 C-11.35 3 -10.52 2.56 -9.66 2.11 C-8.46 1.5 -8.46 1.5 -7.23 0.87 C-6.49 0.49 -5.75 0.11 -4.99 -0.29 C-3 -1 -3 -1 0 0 Z " fill="#FBAE3E" transform="translate(367,132)"/>
<path d="M0 0 C-0.52 7.13 -1.44 14.02 -3 21 C-7.35 19.48 -11.03 17.21 -14.81 14.62 C-15.41 14.24 -16.01 13.85 -16.62 13.45 C-18.33 12.29 -18.33 12.29 -21 10 C-21 8.68 -21 7.36 -21 6 C-17.69 5 -14.38 4 -11.06 3 C-10.12 2.71 -9.17 2.43 -8.2 2.13 C-7.3 1.86 -6.4 1.59 -5.47 1.31 C-4.22 0.94 -4.22 0.94 -2.95 0.55 C-1 0 -1 0 0 0 Z " fill="#FBAE3E" transform="translate(256,171)"/>
</svg>
